<svg width="235" height="66" viewBox="0 0 235 66" fill="none" xmlns="http://www.w3.org/2000/svg">
<path d="M6.93064 16.0231L7.75723 19.6474V66H0V16.0231H6.93064ZM31.3468 26.8959C31.8555 28.8458 32.1098 31.0289 32.1098 33.4451C32.1098 35.8612 31.8131 38.2138 31.2197 40.5029C30.6686 42.7495 29.7996 44.7418 28.6127 46.4797C27.4682 48.2177 26.0058 49.6165 24.2254 50.6763C22.4875 51.6936 20.4316 52.2023 18.0578 52.2023C16.5742 52.2023 15.1541 52.0327 13.7977 51.6936C12.4836 51.3545 11.3391 50.9094 10.3642 50.3583V43.7456C11.763 45.3988 13.4798 46.2254 15.5145 46.2254C16.7861 46.2254 17.9306 45.9075 18.948 45.2716C20.0077 44.6358 20.8979 43.788 21.6185 42.7283C22.3815 41.6262 22.975 40.3333 23.3988 38.8497C23.8227 37.3237 24.0347 35.7129 24.0347 34.0173C24.0347 32.3641 23.8439 30.7957 23.4624 29.3121C23.0809 27.8285 22.5299 26.5144 21.8093 25.3699C21.131 24.2254 20.2832 23.314 19.2659 22.6358C18.2909 21.9576 17.1464 21.6185 15.8324 21.6185C14.7303 21.6185 13.7129 21.8516 12.7803 22.3179C11.8902 22.7418 11.0848 23.3564 10.3642 24.1618V17.4219C11.3391 16.8709 12.42 16.447 13.6069 16.1503C14.7938 15.8535 16.0231 15.7052 17.2948 15.7052C18.6936 15.7052 20.1137 15.8959 21.5549 16.2774C22.9961 16.6589 24.3314 17.2948 25.5607 18.1849C26.8324 19.0751 27.9769 20.2408 28.9942 21.682C30.0116 23.1233 30.7958 24.8612 31.3468 26.8959Z" fill="black"/>
<path d="M43.003 16.0231L43.8296 19.6474V51.8844H36.136V16.0231H43.003ZM62.8412 19.9653C63.5618 20.6859 64.1128 21.5337 64.4943 22.5086C64.9182 23.4412 65.215 24.4373 65.3845 25.4971C65.5965 26.5144 65.7236 27.553 65.766 28.6127C65.8084 29.6724 65.8296 30.711 65.8296 31.7283V51.8844H58.0724V32.3641C58.0724 30.9229 58.0088 29.5452 57.8816 28.2312C57.7545 26.9171 57.4577 25.7514 56.9914 24.7341C56.5252 23.7167 55.8893 22.9325 55.0839 22.3815C54.2785 21.788 53.1552 21.4913 51.714 21.4913C51.1205 21.4913 50.3151 21.5973 49.2978 21.8092C48.3229 21.9788 47.3691 22.2755 46.4365 22.6994V17.8034C47.581 17.21 48.8103 16.7013 50.1244 16.2774C51.4809 15.8535 52.7949 15.6416 54.0666 15.6416C55.9741 15.6416 57.5849 16.0443 58.899 16.8497C60.213 17.6127 61.5271 18.6512 62.8412 19.9653Z" fill="black"/>
<path d="M101.775 2.47974V51.8844H94.4627L94.0176 47.6242V2.47974H101.775ZM69.6014 33.4451C69.6014 30.1387 70.0465 27.3622 70.9367 25.1156C71.8692 22.8689 73.0561 21.0462 74.4973 19.6474C75.9386 18.2485 77.5282 17.2524 79.2661 16.6589C81.0465 16.0231 82.7844 15.7052 84.48 15.7052C85.7941 15.7052 87.0446 15.8535 88.2315 16.1503C89.4183 16.447 90.4781 16.8709 91.4106 17.4219V24.1618C90.69 23.3988 89.8846 22.7842 88.9945 22.3179C88.1043 21.8516 87.1081 21.6185 86.006 21.6185C84.692 21.6185 83.5262 21.9576 82.5089 22.6358C81.4916 23.2716 80.6226 24.1618 79.902 25.3063C79.2237 26.4508 78.6939 27.7649 78.3124 29.2485C77.9309 30.7321 77.7401 32.3217 77.7401 34.0173C77.7401 35.7129 77.9521 37.3025 78.376 38.7861C78.7999 40.2273 79.3721 41.499 80.0927 42.6011C80.8133 43.7032 81.6823 44.5722 82.6997 45.2081C83.7594 45.8439 84.9039 46.1618 86.1332 46.1618C88.2103 46.1618 89.9694 45.3352 91.4106 43.682V50.2948C90.3933 50.8458 89.2064 51.3121 87.8499 51.6936C86.5359 52.0327 85.137 52.2023 83.6534 52.2023C81.9578 52.2023 80.2835 51.9056 78.6303 51.3121C77.0195 50.6763 75.5783 49.6589 74.3066 48.2601C72.6958 46.4373 71.5089 44.1907 70.7459 41.5202C69.9829 38.8073 69.6014 36.1156 69.6014 33.4451Z" fill="black"/>
<path d="M164.534 33.8902L178.776 51.8844H170.002L159.574 38.1503V29.3121L168.476 16.0231H177.123L164.534 33.8902ZM149.21 51.8844V2.47977H156.967V51.8844H149.21Z" fill="black"/>
<path d="M187.762 47.5607C187.762 48.8324 187.317 49.9133 186.427 50.8035C185.537 51.6936 184.456 52.1387 183.184 52.1387C181.912 52.1387 180.831 51.6936 179.941 50.8035C179.094 49.9133 178.67 48.8324 178.67 47.5607C178.67 46.289 179.115 45.2293 180.005 44.3815C180.895 43.4913 181.955 43.0462 183.184 43.0462C184.456 43.0462 185.537 43.4913 186.427 44.3815C187.317 45.2293 187.762 46.289 187.762 47.5607Z" fill="black"/>
<path d="M198.337 51.8844H190.58V16.0231H198.337V51.8844ZM199.037 4.57803C199.037 5.84971 198.592 6.93064 197.702 7.82081C196.811 8.66859 195.73 9.09249 194.459 9.09249C193.187 9.09249 192.106 8.6474 191.216 7.75723C190.368 6.86705 189.944 5.80732 189.944 4.57803C189.944 3.30636 190.389 2.22543 191.28 1.33526C192.17 0.445087 193.229 0 194.459 0C195.73 0 196.811 0.445087 197.702 1.33526C198.592 2.22543 199.037 3.30636 199.037 4.57803Z" fill="black"/>
<path d="M211.456 16.0231L212.283 19.6474V51.8844H204.589V16.0231H211.456ZM231.294 19.9653C232.015 20.6859 232.566 21.5337 232.947 22.5087C233.371 23.4412 233.668 24.4374 233.838 25.4971C234.049 26.5145 234.177 27.553 234.219 28.6127C234.261 29.6724 234.283 30.711 234.283 31.7283V51.8844H226.525V32.3642C226.525 30.9229 226.462 29.5453 226.335 28.2312C226.207 26.9171 225.911 25.7514 225.444 24.7341C224.978 23.7168 224.342 22.9326 223.537 22.3815C222.732 21.7881 221.608 21.4913 220.167 21.4913C219.574 21.4913 218.768 21.5973 217.751 21.8092C216.776 21.9788 215.822 22.2755 214.89 22.6994V17.8035C216.034 17.21 217.263 16.7013 218.577 16.2775C219.934 15.8536 221.248 15.6416 222.52 15.6416C224.427 15.6416 226.038 16.0443 227.352 16.8497C228.666 17.6127 229.98 18.6513 231.294 19.9653Z" fill="black"/>
<path d="M144.052 16.9791L144.052 16.9788L141.745 15.9382V15.4382H141.745H129.763C129.101 15.4382 128.465 15.7013 127.997 16.1696C127.529 16.6379 127.266 17.273 127.266 17.9352C127.266 18.5975 127.529 19.2326 127.997 19.7009C128.465 20.1692 129.101 20.4322 129.763 20.4322H135.717L122.009 34.1399C121.772 34.3696 121.583 34.644 121.453 34.9473C121.322 35.2519 121.253 35.5796 121.25 35.9111C121.247 36.2427 121.311 36.5715 121.436 36.8783C121.562 37.1852 121.747 37.464 121.982 37.6984C122.216 37.9329 122.495 38.1183 122.802 38.2439C123.109 38.3694 123.437 38.4326 123.769 38.4297C124.1 38.4268 124.428 38.3579 124.733 38.2271C125.036 38.0968 125.31 37.9077 125.54 37.6707L139.248 23.9631V29.9173C139.248 30.5795 139.511 31.2146 139.979 31.6829C140.447 32.1512 141.083 32.4143 141.745 32.4143C142.407 32.4143 143.042 32.1512 143.51 31.6829C143.979 31.2146 144.242 30.5795 144.242 29.9173V17.9292L144.242 17.9281C144.241 17.6024 144.177 17.28 144.052 16.9791ZM110.367 18.5092C108.4 20.4755 107.296 23.1424 107.296 25.9232V41.8993C107.296 44.6801 108.4 47.347 110.367 49.3133C112.333 51.2796 115 52.3843 117.781 52.3843H133.757C136.538 52.3843 139.204 51.2796 141.171 49.3133C143.137 47.347 144.242 44.6801 144.242 41.8993V39.9023C144.242 39.24 143.979 38.6049 143.51 38.1366C143.042 37.6683 142.407 37.4053 141.745 37.4053C141.083 37.4053 140.447 37.6683 139.979 38.1366C139.511 38.6049 139.248 39.24 139.248 39.9023V41.8993C139.248 43.3556 138.669 44.7522 137.64 45.782C136.61 46.8118 135.213 47.3903 133.757 47.3903H117.781C116.324 47.3903 114.928 46.8118 113.898 45.782C112.868 44.7522 112.29 43.3556 112.29 41.8993V25.9232C112.29 24.4669 112.868 23.0703 113.898 22.0405C114.928 21.0108 116.324 20.4322 117.781 20.4322H119.778C120.44 20.4322 121.075 20.1692 121.543 19.7009C122.012 19.2326 122.275 18.5975 122.275 17.9352C122.275 17.273 122.012 16.6379 121.543 16.1696C121.075 15.7013 120.44 15.4382 119.778 15.4382H117.781C115 15.4382 112.333 16.5429 110.367 18.5092Z" fill="black" stroke="black"/>
</svg>
