<svg version="1.2" xmlns="http://www.w3.org/2000/svg" viewBox="0 0 1151 2332" width="1151" height="2332"><defs><linearGradient id="P" gradientUnits="userSpaceOnUse"/><linearGradient id="g1" x2="1" href="#P" gradientTransform="matrix(16.995,0,0,267.532,0,14.819)"><stop stop-color="#666"/><stop offset="1"/></linearGradient><linearGradient id="g2" x2="1" href="#P" gradientTransform="matrix(16.848,0,0,272.217,1136.646,15.053)"><stop/><stop offset="1" stop-color="#666"/></linearGradient><linearGradient id="g3" x2="1" href="#P" gradientTransform="matrix(0,-134.564,921.802,0,563.205,2331.541)"><stop stop-color="#959595"/><stop offset="1"/></linearGradient><linearGradient id="g4" x2="1" href="#P" gradientTransform="matrix(0,-168.013,1150.937,0,563.205,128.477)"><stop/><stop offset="1" stop-color="#808080"/></linearGradient><linearGradient id="g5" x2="1" href="#P" gradientTransform="matrix(40.912,0,0,2211.205,1083.638,60.768)"><stop stop-color="#f1f1f1"/><stop offset=".7" stop-color="#333"/></linearGradient><linearGradient id="g6" x2="1" href="#P" gradientTransform="matrix(1051.277,0,0,127.013,49.845,2178.785)"><stop stop-color="#1a1a1a"/><stop offset=".52" stop-color="#929292"/><stop offset="1" stop-color="#1a1a1a"/></linearGradient><linearGradient id="g7" x2="1" href="#P" gradientTransform="matrix(1074.794,0,0,127.218,49.845,26.972)"><stop stop-color="#1a1a1a"/><stop offset=".52" stop-color="#929292"/><stop offset="1" stop-color="#1a1a1a"/></linearGradient><linearGradient id="g8" x2="1" href="#P" gradientTransform="matrix(24.273,0,0,1308.27,26.357,59.948)"><stop stop-color="#c8c8c8"/><stop offset="1" stop-color="#242424"/></linearGradient><linearGradient id="g9" x2="1" href="#P" gradientTransform="matrix(41.03,0,0,2211.439,1083.521,60.768)"><stop stop-color="#242424"/><stop offset="1" stop-color="#c8c8c8"/></linearGradient><linearGradient id="g10" x2="1" href="#P" gradientTransform="matrix(134.715,0,0,14.155,504.567,77.917)"><stop stop-color="#333"/><stop offset=".48" stop-color="#1a1a1a"/><stop offset="1" stop-color="#333"/></linearGradient></defs><style>.a{fill:url(#g1)}.b{fill:url(#g2)}.c{fill:url(#g3)}.d{fill:url(#g4)}.e{fill:url(#g5)}.f{fill:url(#g6)}.g{fill:url(#g7)}.h{fill:url(#g8)}.i{fill:url(#g9)}.j{fill:url(#g10)}</style><path class="a" d="m138.7 2316.2q-1.9-0.2-3.7-0.4h-0.1q-3.7-0.5-7.2-1.1c-14.5-2.4-28.3-6.9-41.1-13.1q-1.3-0.7-2.7-1.3c-2.3-1.2-4.5-2.4-6.7-3.7q-1.6-0.9-3-1.8c-5.1-3.1-9.9-6.4-14.6-10q-1.2-1-2.5-2-3.7-2.9-7.1-6.1-1.2-1.1-2.3-2.1-1.3-1.3-2.6-2.5-1.2-1.3-2.5-2.6-0.8-0.8-1.6-1.7-1-1.1-2-2.2-5.8-6.6-10.9-13.8c-0.7-0.8-1.2-1.7-1.8-2.6q-2.8-4-5.2-8.2-1-1.5-1.8-3.1c-4.2-7.6-7.8-15.6-10.7-23.9q-0.7-1.7-1.2-3.4-2.8-8.6-4.5-17.5-0.4-1.8-0.7-3.6c-1.4-8.5-2.2-17.1-2.2-26v-1995.5c0-82.1 65-149.4 146.2-153.2-73.2 3.8-131.6 64.5-131.6 138.6v2024.8c0 71.5 54.5 130.6 124.1 138z"/><path class="b" d="m1150.9 168v1995.5c0 16.5-2.6 32.3-7.4 47.1q-0.5 1.8-1.1 3.4-0.6 1.8-1.2 3.4-0.5 1.3-1 2.5-1.5 3.8-3.2 7.4-0.7 1.6-1.5 3.2c-0.7 1.5-1.5 3-2.3 4.5q-0.7 1.4-1.5 2.9-0.9 1.5-1.8 3.1-2.5 4.2-5.2 8.3c-0.6 0.8-1.2 1.7-1.8 2.6q-1 1.4-2.1 2.8c-0.7 1-1.4 1.9-2.1 2.8q-1.1 1.4-2.2 2.8-1.1 1.3-2.3 2.7-2.3 2.7-4.7 5.2-3.7 4-7.6 7.7-1.2 1.1-2.4 2.2-2.8 2.4-5.7 4.8-1.2 0.9-2.5 1.9-4.2 3.3-8.6 6.2-1.4 1-2.9 1.9-3 2-6.1 3.7c-1 0.6-2 1.2-3 1.7-3.3 1.8-6.7 3.5-10.2 5q-1.3 0.7-2.7 1.2c-1.1 0.5-2.2 1-3.3 1.4q-1.6 0.7-3.3 1.3-3.7 1.4-7.6 2.6c-0.9 0.3-1.8 0.6-2.7 0.8q-5 1.5-10.2 2.7-1.8 0.4-3.6 0.7-1.9 0.4-3.9 0.7-3.6 0.6-7.2 1.1h-0.1q-1.8 0.2-3.7 0.4c69.7-7.4 124.1-66.5 124.1-138v-2024.8c0-72.8-56.4-132.7-127.8-138.3 79.5 5.6 142.4 72 142.4 152.9z"/><path class="c" d="m1150.9 2163.5v14.7c0 84.5-68.8 153.3-153.3 153.3h-844.2c-84.6 0-153.4-68.8-153.4-153.3v-14.7c0 8.9 0.8 17.5 2.2 26q0.3 1.8 0.7 3.6 1.7 8.9 4.5 17.5 0.5 1.7 1.2 3.4c2.9 8.3 6.5 16.3 10.7 23.9q0.8 1.6 1.8 3.1 2.4 4.2 5.2 8.2c0.6 0.9 1.1 1.8 1.8 2.6q5.1 7.2 10.9 13.8 1 1.1 2 2.2 0.8 0.9 1.6 1.7 1.3 1.3 2.5 2.6 1.3 1.2 2.6 2.5 1.1 1 2.3 2.1 3.4 3.2 7.1 6.1 1.3 1 2.5 2c4.7 3.6 9.5 6.9 14.6 10q1.4 0.9 3 1.8c2.2 1.3 4.4 2.5 6.7 3.7q1.4 0.6 2.7 1.3c12.8 6.2 26.6 10.7 41.1 13.1q3.5 0.6 7.2 1.1h0.1q3.7 0.4 7.4 0.7c1.2 0.1 2.5 0.2 3.8 0.2q3.6 0.2 7.2 0.2h844.2q3.6 0 7.1-0.2c1.3 0 2.6-0.1 3.8-0.2q3-0.2 6-0.6 0.7 0 1.4-0.1h0.1q3.7-0.5 7.2-1.1 2-0.3 3.9-0.7 1.8-0.3 3.6-0.7 5.2-1.2 10.2-2.7 1.4-0.4 2.7-0.8 3.9-1.2 7.6-2.6 1.7-0.6 3.3-1.3c1.1-0.4 2.2-0.9 3.3-1.4q1.4-0.5 2.7-1.2c3.5-1.5 6.9-3.2 10.2-5 1-0.5 2-1.1 3-1.7q3.1-1.7 6.1-3.7 1.5-0.9 2.9-1.9 4.4-2.9 8.6-6.2c0.9-0.6 1.7-1.3 2.5-1.9q2.9-2.4 5.7-4.8 1.2-1.1 2.4-2.2 3.9-3.7 7.6-7.7c1.6-1.7 3.2-3.4 4.7-5.2q1.2-1.4 2.3-2.7 1.1-1.4 2.2-2.8 1.1-1.4 2.1-2.8c0.7-0.9 1.4-1.9 2.1-2.8 0.6-0.9 1.2-1.8 1.8-2.6q2.7-4.1 5.2-8.3 0.9-1.6 1.8-3.1 0.8-1.5 1.5-2.9c0.8-1.5 1.6-3 2.3-4.5 0.5-1 1.1-2.1 1.5-3.2q1.7-3.6 3.2-7.4 0.5-1.2 1-2.5 0.6-1.6 1.2-3.4 0.6-1.6 1.1-3.4c4.8-14.8 7.4-30.6 7.4-47.1z"/><path class="d" d="m1150.9 153.4v14.6c0-79.6-60.9-145.2-138.7-152.6-1.2-0.1-2.5-0.3-3.7-0.3-1.2-0.1-2.5-0.2-3.8-0.3-2.4-0.1-4.7-0.2-7.1-0.2h-844.2q-3.6 0-7.1 0.2h-0.1c-81.2 3.8-146.2 71.1-146.2 153.2v-14.6q0-2.3 0.1-4.5c0-1.2 0-2.3 0.1-3.4q0.2-3.7 0.6-7.3 0.1-1.9 0.4-3.8 0.1-1 0.2-2 0.2-1.1 0.4-2.4 0.3-1.9 0.6-3.7 0.6-3.3 1.3-6.5 0.4-1.7 0.8-3.2c0.7-3.2 1.6-6.3 2.6-9.4q0.5-1.5 1-3 0.6-1.8 1.2-3.5 0.6-1.5 1.2-3c0.3-0.8 0.6-1.6 0.9-2.4q0.6-1.4 1.2-2.8c0.3-0.8 0.6-1.5 1-2.2 0.5-1 0.9-2.1 1.5-3.1q1.2-2.7 2.7-5.4 0.7-1.4 1.5-2.8c0.5-1 1.1-2.1 1.8-3.1 4.2-7.2 9-14.1 14.4-20.5q1.1-1.4 2.3-2.7c0.9-1 1.8-2.1 2.7-3.1 1.5-1.6 3-3.2 4.6-4.8q2.6-2.5 5.2-4.9c1.8-1.6 3.6-3.2 5.4-4.7 0.9-0.8 1.9-1.5 2.8-2.3q2.8-2.1 5.8-4.3 2.8-2 5.9-4c2-1.3 4-2.5 6.1-3.7q1.5-1 3.1-1.8 1.6-0.9 3.2-1.7c1.1-0.6 2.1-1.1 3.2-1.7q1.6-0.8 3.3-1.6 3.2-1.5 6.6-2.8 1.6-0.7 3.3-1.3c0-0.1 0.2-0.1 0.3-0.1 1-0.4 2.1-0.8 3.2-1.2q1.7-0.6 3.3-1.1c1.2-0.4 2.4-0.8 3.7-1.2q1.8-0.5 3.5-1c1.2-0.3 2.4-0.6 3.6-0.9q1.8-0.5 3.6-0.9 3.6-0.8 7.3-1.4 1.8-0.3 3.7-0.6 3.9-0.6 7.9-0.9 3.2-0.3 6.4-0.5 2-0.1 3.9-0.1 2-0.1 4-0.1h844.2q1.9 0 3.9 0.1c1.1 0 2.2 0 3.3 0.1q3.7 0.2 7.4 0.5h0.1q1.9 0.2 3.7 0.4 1.9 0.2 3.7 0.5 1.9 0.3 3.7 0.6 1.9 0.3 3.7 0.7 0-0.1 0 0 1.8 0.3 3.6 0.7c1.1 0.3 2.2 0.5 3.3 0.8q0.4 0.1 0.7 0.1 1.5 0.4 3.1 0.9 2.1 0.5 4.3 1.2 1.4 0.4 2.8 0.9 3.2 1 6.4 2.2 2.1 0.8 4.2 1.7c1 0.4 2 0.8 3 1.3q1.7 0.7 3.3 1.4 1.7 0.8 3.3 1.6 11.6 5.7 22 13.2 1.2 0.9 2.5 1.9 4.5 3.4 8.8 7.1 1.9 1.6 3.7 3.3c4.9 4.6 9.6 9.6 13.8 14.7 0.8 1 1.5 1.9 2.3 2.8q2.3 3 4.4 5.9 1.1 1.5 2.1 3.1c1.2 1.7 2.3 3.5 3.5 5.3q0.8 1.3 1.6 2.7c1 1.7 2 3.5 2.9 5.2 0.5 0.9 1 1.7 1.4 2.6 1.5 3 2.9 6 4.3 9 0.3 0.8 0.6 1.6 1 2.4q1.9 4.6 3.5 9.3 0.6 1.8 1.1 3.5 3.2 10.1 4.9 20.7 0.2 1.1 0.4 2.3 0.2 1.8 0.5 3.7c0.1 1.3 0.3 2.5 0.4 3.7 0.1 1.3 0.2 2.6 0.3 3.8q0.3 3.5 0.3 7 0.1 2.2 0.1 4.5z"/><path fill-rule="evenodd" d="m1136.3 153.4v2024.8c0 72.8-56.4 132.7-127.8 138.3-1.2 0.1-2.5 0.2-3.8 0.2q-3.5 0.2-7.1 0.2h-844.2q-3.6 0-7.2-0.2c-1.3 0-2.6-0.1-3.8-0.2-71.4-5.6-127.8-65.5-127.8-138.3v-2024.8c0-74.1 58.4-134.8 131.6-138.6h0.1q3.5-0.2 7.1-0.2h844.2q3.6 0 7.1 0.2c73.2 3.8 131.6 64.5 131.6 138.6zm-11.7 0c0-67.6-52.8-123.3-120.3-126.9h-0.2c-2.1-0.1-4.3-0.1-6.5-0.1h-844.2c-2.2 0-4.4 0-6.5 0.1h-0.3-0.1c-67.4 3.7-120.1 59.3-120.1 126.9v2024.8c0 65.8 51.3 121.4 116.9 126.6 1.1 0.1 2.3 0.2 3.5 0.2q3.3 0.2 6.6 0.2h844.2q3.3 0 6.5-0.2c1.2 0 2.4-0.1 3.6-0.2 65.5-5.2 116.9-60.8 116.9-126.6z"/><path class="e" d="m1124.6 154.2v2024.8c0 12.5-1.9 24.7-5.4 36.2-2.8 9.2-6.5 18-11.3 26.2q-1.4 2.6-3 5-2.3 3.7-4.9 7.2c-4.9 6.7-10.3 12.8-16.3 18.4 11.1-19.4 17.4-41.9 17.4-65.7v-23.3q0.1-2.1 0.1-4.2v-2024.8q0-2.2-0.1-4.3v-22.8c0-24.1-6.3-46.7-17.5-66.1 25.3 23.2 41 56.5 41 93.4z"/><path fill-rule="evenodd" d="m1112.9 153.4v2024.8c0 59.7-46.6 110.2-106.1 114.9-1 0.1-2 0.2-3 0.2h-0.3q-3 0.2-5.9 0.2h-844.2q-3 0-6-0.2h-0.4c-0.9 0-1.9-0.1-2.7-0.2-59.6-4.7-106.2-55.1-106.2-114.9v-2024.8c0-61.2 47.7-111.7 108.7-115.2h0.3 0.6q2.8-0.1 5.7-0.1h844.2q2.8 0 5.5 0.1h0.6c61.2 3.2 109.2 53.8 109.2 115.2zm-30.8 0c0-45-35.1-82.1-80-84.5h-0.4-0.3q-2.1-0.1-3.8-0.1h-844.2q-1.7 0-3.7 0.1l-1.2 0.1h-0.7c-44.4 2.9-79 39.8-79 84.4v2024.8c0 43.8 34.2 80.8 77.9 84.3 0.4 0 0.8 0 1.1 0.1h0.3 0.2 0.4 0.1 0.2q2.2 0.1 4.4 0.1h844.2q2.1 0 4.2-0.1h0.2 0.3 0.3 0.3 0.2q0.7-0.1 1.3-0.1c43.6-3.5 77.7-40.5 77.7-84.3z"/><path  d="m862.5 68.8v11.1c0 37.1-30.2 67.3-67.3 67.3h-439.4c-37.2 0-67.3-30.2-67.3-67.3v-11.1z"/><path  d="m862.5 68.8v11.1c0 37.1-30.2 67.3-67.3 67.3h-439.4c-37.2 0-67.3-30.2-67.3-67.3v-11.1z"/><path class="f" d="m1101.1 2183v23.3c0 23.8-6.3 46.3-17.4 65.7-20.3 18.8-46.7 31.1-75.9 33.4-1.2 0.1-2.4 0.2-3.6 0.2q-3.3 0.2-6.6 0.2h-844.1q-3.4 0-6.7-0.2c-1.2 0-2.4-0.1-3.4-0.2q-2.5-0.2-4.9-0.5c-27.3-3.2-51.9-15.2-71.1-32.9-11.1-19.4-17.6-42-17.6-65.9v-27.3c0 31.2 14.2 59.6 36.5 78.7 16.1 13.8 36.5 22.8 58.9 24.5 0.7 0.1 1.5 0.2 2.2 0.2h0.3 0.3q2.7 0.2 5.5 0.2h844.1c1.8 0 3.6-0.1 5.3-0.2h0.4 0.3c0.8 0 1.6-0.1 2.4-0.2 52-4 93-47.2 95.1-99z"/><path class="g" d="m1124.6 154.2v-0.2c0-67.6-52.8-123.3-120.2-126.9h-0.2c-2.2-0.1-4.4-0.1-6.6-0.1h-844.1c-2.2 0-4.4 0-6.6 0.1h-0.3q-4.1 0.3-8.2 0.8c-27.3 3.2-51.9 15-71.1 32.7-11.1 19.4-17.5 42-17.5 66.1v27.3c0-31.5 14.1-59.8 36.4-78.9 16.6-14.1 37.7-23.1 61-24.5h0.6l0.8-0.1q2.6-0.1 4.9-0.1h844.1q2 0 4.4 0.1h0.1 1c53.6 2.9 95.9 46 98 99.2v-22.8c0-24.1-6.3-46.7-17.5-66.1 25.3 23.2 41 56.5 41 93.4z"/><path class="h" d="m67.4 2271.4c-25.3-23.4-41-56.7-41-93.2v-2024.8c0-36.9 15.7-70.2 40.9-93.5-11.2 19.5-17.5 42.1-17.5 66.1v2079.5c0 23.9 6.4 46.4 17.6 65.9z"/><path class="i" d="m1124.6 154.2v2024.8c0 12.5-1.9 24.7-5.4 36.2-2.8 9.2-6.5 18-11.3 26.2q-1.4 2.6-3 5-2.3 3.7-4.9 7.2c-4.9 6.7-10.4 13-16.5 18.6 0.1-0.1 0.1-0.1 0.2-0.2 11.1-19.4 17.4-41.9 17.4-65.7v-2079.4c0-24.1-6.3-46.7-17.5-66.1 25.3 23.2 41 56.5 41 93.4z"/><path class="j" d="m504.6 79.7c0-1 0.8-1.8 1.7-1.8h131.2c1 0 1.8 0.8 1.8 1.8v10.6c0 1-0.8 1.8-1.8 1.8h-131.2c-0.9 0-1.7-0.8-1.7-1.8z"/></svg>